<svg xmlns="http://www.w3.org/2000/svg" data-name="Layer 1" viewBox="0 0 48 60" x="0px" y="0px"><title>error_6</title><path d="M18.49,27.14a10.69,10.69,0,0,1,11,0A1,1,0,0,1,29,29a1,1,0,0,1-.51-.14,8.72,8.72,0,0,0-9,0,1,1,0,1,1-1-1.72Zm-3.2-7.43a1,1,0,0,0,1.42,0l.29-.3.29.3a1,1,0,0,0,1.42,0,1,1,0,0,0,0-1.42l-.3-.29.3-.29a1,1,0,0,0-1.42-1.42l-.29.3-.29-.3a1,1,0,0,0-1.42,1.42l.3.29-.3.29A1,1,0,0,0,15.29,19.71Zm14,0a1,1,0,0,0,1.42,0l.29-.3.29.3a1,1,0,0,0,1.42,0,1,1,0,0,0,0-1.42l-.3-.29.3-.29a1,1,0,0,0-1.42-1.42l-.29.3-.29-.3a1,1,0,0,0-1.42,1.42l.3.29-.3.29A1,1,0,0,0,29.29,19.71ZM48,7V35a1,1,0,0,1-1,1H31v4h1a1,1,0,0,1,0,2H16a1,1,0,0,1,0-2h1V36H1a1,1,0,0,1-1-1V7A1,1,0,0,1,1,6H47A1,1,0,0,1,48,7ZM29,36H19v4H29ZM46,8H2V34H46Z"/><text x="0" y="63" fill="#000000" font-size="5px" font-weight="bold" font-family="'Helvetica Neue', Helvetica, Arial-Unicode, Arial, Sans-serif">Created by Mello</text><text x="0" y="68" fill="#000000" font-size="5px" font-weight="bold" font-family="'Helvetica Neue', Helvetica, Arial-Unicode, Arial, Sans-serif">from the Noun Project</text></svg>