<svg xmlns="http://www.w3.org/2000/svg" viewBox="0 0 64 80" x="0px" y="0px"><g><polygon points="24 18 21.688 18 6 18 6 29 9 29 24 29 24 18"/><path d="M22,37.069a7.951,7.951,0,0,1,3,1.013V31H22Z"/><path d="M13,45a8.008,8.008,0,0,1,7-7.931V31H10V60H25V51.918A7.986,7.986,0,0,1,13,45Z"/><path d="M44.437,11.2l.275-.435a1.841,1.841,0,0,0-.8-2.665,1.869,1.869,0,0,0-2.048.321l-3.982,3.642h4.973A1.864,1.864,0,0,0,44.437,11.2Z"/><path d="M34.446,16h8.725a5.836,5.836,0,0,0,4.651-2.7l.276-.435a5.763,5.763,0,0,0,.658-4.754,5.827,5.827,0,0,0-3.179-3.621A5.9,5.9,0,0,0,39.15,5.508l-5.284,4.834a.987.987,0,0,0-.322.727V15.03A.986.986,0,0,0,34.446,16Zm1.1-4.5,4.964-4.541a3.946,3.946,0,0,1,4.236-.667,3.838,3.838,0,0,1,2.094,2.387,3.8,3.8,0,0,1-.432,3.134l-.276.435a3.858,3.858,0,0,1-3.274,1.789H35.544Z"/><path d="M20.107,11.2a1.864,1.864,0,0,0,1.581.863h4.974L22.68,8.417A1.871,1.871,0,0,0,20.631,8.1a1.841,1.841,0,0,0-.8,2.665Z"/><path d="M16.722,13.3A5.837,5.837,0,0,0,21.374,16H30.1a.986.986,0,0,0,.9-.97V11.069a.986.986,0,0,0-.321-.727L25.4,5.508a5.889,5.889,0,0,0-9.606,2.607,5.763,5.763,0,0,0,.657,4.754Zm.985-4.623A3.836,3.836,0,0,1,19.8,6.294a3.946,3.946,0,0,1,4.236.667L29,11.5v2.537H21.688a3.856,3.856,0,0,1-3.273-1.789l-.276-.435A3.794,3.794,0,0,1,17.707,8.681Z"/><path d="M42.856,18H40V29H58V18ZM48,27H46V25h2Zm4,0H50V25h2Zm4,0H54V25h2Z"/><rect x="39" y="31" width="15" height="29"/><polygon points="30 18 26 18 26 29 38 29 38 18 34.544 18 30 18"/><path d="M27,39.726a7.954,7.954,0,0,1,0,10.548V60H37V31H27Z"/><path d="M17.942,47.661,21,49.408l3.058-1.747A3.833,3.833,0,0,0,25.91,43.5l0-.02a1.883,1.883,0,0,0-3.17-.923l-1.07,1.069a.942.942,0,0,1-1.332,0l-1.069-1.069a1.884,1.884,0,0,0-3.171.923l-.005.021A3.835,3.835,0,0,0,17.942,47.661Z"/></g><text x="0" y="79" fill="#000000" font-size="5px" font-weight="bold" font-family="'Helvetica Neue', Helvetica, Arial-Unicode, Arial, Sans-serif">Created by supalerk laipawat</text><text x="0" y="84" fill="#000000" font-size="5px" font-weight="bold" font-family="'Helvetica Neue', Helvetica, Arial-Unicode, Arial, Sans-serif">from the Noun Project</text></svg>